<svg width="24" height="24" viewBox="0 0 24 24" fill="none" xmlns="http://www.w3.org/2000/svg">
<path d="M18.5027 12.0001C18.5027 12.2764 18.2788 12.5003 18.0025 12.5003C17.7263 12.5003 17.5023 12.2764 17.5023 12.0001C17.5023 11.7239 17.7263 11.4999 18.0025 11.4999C18.2788 11.4999 18.5027 11.7239 18.5027 12.0001" stroke="white" stroke-width="1.5" stroke-linecap="round" stroke-linejoin="round"/>
<path d="M12.5002 12.0001C12.5002 12.2764 12.2762 12.5003 12 12.5003C11.7237 12.5003 11.4998 12.2764 11.4998 12.0001C11.4998 11.7239 11.7237 11.4999 12 11.4999C12.2762 11.4999 12.5002 11.7239 12.5002 12.0001" stroke="white" stroke-width="1.5" stroke-linecap="round" stroke-linejoin="round"/>
<path d="M6.49773 12.0001C6.49773 12.2764 6.27378 12.5003 5.99752 12.5003C5.72127 12.5003 5.49731 12.2764 5.49731 12.0001C5.49731 11.7239 5.72127 11.4999 5.99752 11.4999C6.27378 11.4999 6.49773 11.7239 6.49773 12.0001" stroke="white" stroke-width="1.5" stroke-linecap="round" stroke-linejoin="round"/>
</svg>
